<svg width="16" height="16" viewBox="0 0 16 16" fill="none" xmlns="http://www.w3.org/2000/svg">
<path d="M15.0541 12.232C14.9907 12.3377 14.9072 12.4298 14.8083 12.5032C14.7093 12.5766 14.5969 12.6297 14.4774 12.6596C14.3579 12.6895 14.2337 12.6956 14.1118 12.6774C13.99 12.6593 13.8729 12.6173 13.7673 12.5539L8.93765 9.65547V14.875C8.93765 15.1236 8.83888 15.3621 8.66306 15.5379C8.48725 15.7137 8.24879 15.8125 8.00015 15.8125C7.75151 15.8125 7.51305 15.7137 7.33724 15.5379C7.16142 15.3621 7.06265 15.1236 7.06265 14.875V9.65547L2.23296 12.5539C2.12739 12.6173 2.01038 12.6592 1.8886 12.6773C1.76682 12.6955 1.64266 12.6894 1.52322 12.6596C1.40377 12.6297 1.29137 12.5766 1.19244 12.5033C1.09351 12.43 1.00999 12.338 0.946633 12.2324C0.818687 12.0192 0.780678 11.7639 0.840968 11.5227C0.901258 11.2814 1.05491 11.074 1.26812 10.9461L6.17827 8L1.26812 5.05391C1.05491 4.92596 0.901258 4.71856 0.840968 4.47732C0.780678 4.23609 0.818687 3.98079 0.946633 3.76758C1.07458 3.55437 1.28198 3.40072 1.52322 3.34043C1.76445 3.28014 2.01975 3.31815 2.23296 3.44609L7.06265 6.34453V1.125C7.06265 0.87636 7.16142 0.637903 7.33724 0.462087C7.51305 0.286272 7.75151 0.1875 8.00015 0.1875C8.24879 0.1875 8.48725 0.286272 8.66306 0.462087C8.83888 0.637903 8.93765 0.87636 8.93765 1.125V6.34453L13.7673 3.44609C13.8729 3.38274 13.9899 3.3408 14.1117 3.32267C14.2335 3.30454 14.3576 3.31058 14.4771 3.34043C14.5965 3.37028 14.7089 3.42337 14.8079 3.49666C14.9068 3.56995 14.9903 3.66201 15.0537 3.76758C15.117 3.87315 15.159 3.99016 15.1771 4.11194C15.1952 4.23372 15.1892 4.35788 15.1593 4.47732C15.1295 4.59677 15.0764 4.70917 15.0031 4.8081C14.9298 4.90703 14.8378 4.99055 14.7322 5.05391L9.82202 8L14.7322 10.9461C14.9454 11.074 15.099 11.2813 15.1594 11.5224C15.2197 11.7636 15.1819 12.0188 15.0541 12.232Z" fill="#3625FF"/>
</svg>
